Coordinates
version=1
nRows=11
nColumns=32
inDegrees=yes

Units are S.I. units (second, meters, Newtons, ...)
If the header above contains a line with 'inDegrees', this indicates whether rotational values are in degrees (yes) or radians (no).

endheader
time	pelvis_tilt	pelvis_list	pelvis_rotation	pelvis_tx	pelvis_ty	pelvis_tz	hip_flexion_r	hip_adduction_r	hip_rotation_r	knee_angle_r	knee_adduction_r	med_cond_adduction_r	lat_cond_adduction_r	patella_r_constrained_knee_angle	hip_flexion_l	hip_adduction_l	hip_rotation_l	knee_angle_l	knee_adduction_l	med_cond_adduction_l	lat_cond_adduction_l	patella_l_constrained_knee_angle	lumbar_extension	lumbar_bending	lumbar_rotation	ankle_angle_r	subtalar_angle_r	mtp_angle_r	ankle_angle_l	subtalar_angle_l	mtp_angle_l
      0.31000000	     -8.60846423	      1.27607525	     -2.12606362	     -0.96329039	      0.86843709	      0.17872703	     32.83907219	     -6.63398061	      2.61834942	    -61.29729429	      7.80462923	      0.00000000	      0.00000000	     -1.06983961	     18.82444731	      5.38574374	     -0.04205718	    -16.36755425	      1.63291675	      0.00000000	      0.00000000	     -0.28566771	     -7.74808574	     -0.98225490	      2.11336071	     -7.43607448	     -2.53712017	      0.00000000	      7.23941334	     15.89996602	     -0.00000000
      0.31500000	     -8.56896367	      1.22986767	     -1.81844257	     -0.95710048	      0.86892324	      0.17854347	     33.41315867	     -6.71390902	      2.51949273	    -60.64049960	      7.90426065	     -0.00000000	     -0.00000000	     -1.05837638	     18.04674241	      5.40866844	      0.11783190	    -15.93124800	      1.63564426	     -0.00000000	     -0.00000000	     -0.27805273	     -7.83044816	     -0.92194921	      1.86830162	     -6.90544002	     -2.95737705	      0.00000000	      7.38999613	     15.96868333	     -0.00000000
      0.32000000	     -8.52619211	      1.18278135	     -1.51818299	     -0.95090495	      0.86933092	      0.17841616	     33.95672793	     -6.78183927	      2.40964615	    -59.91537494	      7.98506391	     -0.00000000	     -0.00000000	     -1.04572057	     17.25407608	      5.42812846	      0.26944351	    -15.47848203	      1.61401321	     -0.00000000	     -0.00000000	     -0.27015047	     -7.92989561	     -0.89852995	      1.63893066	     -6.41351681	     -3.36483609	     -0.00000000	      7.55372892	     16.04653298	     -0.00000000
      0.32500000	     -8.49942534	      1.11042867	     -1.22198575	     -0.94471251	      0.86968661	      0.17834041	     34.47065914	     -6.80106020	      2.33289226	    -59.08351362	      8.07733437	     -0.00000000	     -0.00000000	     -1.03120185	     16.48498607	      5.39893466	      0.38807394	    -15.03531039	      1.59139667	     -0.00000000	     -0.00000000	     -0.26241567	     -8.03343189	     -0.86190144	      1.40784716	     -5.94504275	     -3.81246925	      0.00000000	      7.79491109	     16.22451060	     -0.00000000
      0.33000000	     -8.47656564	      1.07344716	     -0.92407541	     -0.93853370	      0.86995913	      0.17828830	     34.97062422	     -6.85698959	      2.30154361	    -58.19799311	      8.19124962	      0.00000000	      0.00000000	     -1.01574660	     15.70894897	      5.42000320	      0.58987195	    -14.56514743	      1.56027172	      0.00000000	      0.00000000	     -0.25420978	     -8.11499047	     -0.87052062	      1.15279333	     -5.44108401	     -4.22948120	      0.00000000	      7.92654911	     16.24773572	      0.00000000
      0.33500000	     -8.47156436	      1.04343429	     -0.60970238	     -0.93237406	      0.87013129	      0.17825557	     35.46231861	     -6.92319598	      2.26988827	    -57.24494888	      8.30275477	      0.00000000	      0.00000000	     -0.99911284	     14.95877656	      5.42560099	      0.82378288	    -14.09643620	      1.58515706	      0.00000000	      0.00000000	     -0.24602922	     -8.17529571	     -0.88628167	      0.85965460	     -4.94423097	     -4.72410429	      0.00000000	      8.10686759	     16.27648855	      0.00000000
      0.34000000	     -8.43361523	      1.03539809	     -0.30609169	     -0.92620505	      0.87027821	      0.17824037	     35.87711106	     -7.00704317	      2.28261288	    -56.20114476	      8.42319144	     -0.00000000	      0.00000000	     -0.98089502	     14.17833796	      5.45440972	      1.02084595	    -13.63569579	      1.58577496	      0.00000000	      0.00000000	     -0.23798779	     -8.26868240	     -0.90388194	      0.59049819	     -4.55043023	     -5.24620031	      0.00000000	      8.30561051	     16.28203309	      0.00000000
      0.34500000	     -8.40847601	      0.98269323	      0.00157853	     -0.92004671	      0.87037271	      0.17830550	     36.25527443	     -7.01430156	      2.24709182	    -55.04054345	      8.48432779	      0.00000000	      0.00000000	     -0.96063871	     13.44685433	      5.41231443	      1.23236495	    -13.23149997	      1.60535388	     -0.00000000	     -0.00000000	     -0.23093324	     -8.37748290	     -0.96204211	      0.39133937	     -4.21508278	     -5.71025848	      0.00000000	      8.55566279	     16.35027764	      0.00000000
      0.35000000	     -8.40895827	      0.95831563	      0.29709667	     -0.91389826	      0.87035486	      0.17837366	     36.63440997	     -7.04082718	      2.29269010	    -53.81563938	      8.58000259	     -0.00000000	     -0.00000000	     -0.93926010	     12.75921516	      5.42027167	      1.41171476	    -12.85163655	      1.57952198	     -0.00000000	     -0.00000000	     -0.22430337	     -8.44954928	     -0.99644165	      0.14192112	     -3.88989844	     -6.29857352	      0.00000000	      8.75759188	     16.41567353	     -0.00000000
      0.35500000	     -8.40057470	      0.92117936	      0.60379312	     -0.90776721	      0.87029648	      0.17851183	     36.95467220	     -7.03444791	      2.34087964	    -52.51516491	      8.64862697	     -0.00000000	     -0.00000000	     -0.91656253	     12.05613706	      5.36765444	      1.74194390	    -12.45476909	      1.67633706	     -0.00000000	     -0.00000000	     -0.21737673	     -8.53317569	     -1.05164743	     -0.07889203	     -3.60141598	     -6.56735374	      0.00000000	      9.04955967	     16.23241142	     -0.00000000
      0.36000000	     -8.37940105	      0.96108564	      0.91796582	     -0.90160762	      0.87016311	      0.17858494	     37.23698619	     -7.13800383	      2.35549531	    -51.14032390	      8.68882144	      0.00000000	      0.00000000	     -0.89256703	     11.36483505	      5.46886209	      1.94534853	    -12.11037787	      1.59630533	     -0.00000000	     -0.00000000	     -0.21136597	     -8.64534188	     -1.17129986	     -0.31462750	     -3.28665059	     -7.28653956	      0.00000000	      9.21390092	     16.41846971	     -0.00000000
